# xmcd CD database file
#
# Track frame offsets:
#	150
#	12498
#	24100
#	35346
#	48239
#	61439
#	74149
#	87136
#	100349
#	113952
#	126087
#	138600
#	151232
#	164101
#	176994
#	192255
#	206687
#	221901
#	237588
#
# Disc length: 3354 seconds
#
# Revision: 0
# Processed by: cddbd v1.5.2PL0 Copyright (c) Steve Scherf et al.
# Submitted via: CDex 1.51
#
DISCID=210d1813
DTITLE=Jelly Roll Morton - Quadromania Jazz
DYEAR=2005
DGENRE=Jazz
TTITLE0=New Orleans Blues Joys
TTITLE1=Grandpapas Spells (A Stomp)
TTITLE2=Thirty-Fifth Street Blues
TTITLE3=Froggie Moore
TTITLE4=London Blues
TTITLE5=Tia Juana (Tee Wana)
TTITLE6=Mamamita
TTITLE7=Bucktown Blues
TTITLE8=Tom Cat Blues
TTITLE9=Perfect Rag
TTITLE10=The Pearls
TTITLE11=Sweetheart O'Mine
TTITLE12=Fat MeatAnd Greens
TTITLE13=King Porter Stomp
TTITLE14=Smoke-House Blues
TTITLE15=Black Bottom Stomp
TTITLE16=The Chant
TTITLE17=Sidewalk Blues
TTITLE18=Steamboat Stomp
EXTD=YEAR: 2005
EXTT0=
EXTT1=
EXTT2=
EXTT3=
EXTT4=
EXTT5=
EXTT6=
EXTT7=
EXTT8=
EXTT9=
EXTT10=
EXTT11=
EXTT12=
EXTT13=
EXTT14=
EXTT15=
EXTT16=
EXTT17=
EXTT18=
PLAYORDER=
